<svg id="visual" viewBox="0 0 900 600" width="900" height="600" xmlns="http://www.w3.org/2000/svg"
    xmlns:xlink="http://www.w3.org/1999/xlink" version="1.1">
    <path
        d="M0 103L13.7 120C27.3 137 54.7 171 82 198C109.3 225 136.7 245 163.8 250C191 255 218 245 245.2 228C272.3 211 299.7 187 327 181C354.3 175 381.7 187 409 186C436.3 185 463.7 171 491 161C518.3 151 545.7 145 573 140C600.3 135 627.7 131 654.8 132C682 133 709 139 736.2 139C763.3 139 790.7 133 818 121C845.3 109 872.7 91 886.3 82L900 73L900 0L886.3 0C872.7 0 845.3 0 818 0C790.7 0 763.3 0 736.2 0C709 0 682 0 654.8 0C627.7 0 600.3 0 573 0C545.7 0 518.3 0 491 0C463.7 0 436.3 0 409 0C381.7 0 354.3 0 327 0C299.7 0 272.3 0 245.2 0C218 0 191 0 163.8 0C136.7 0 109.3 0 82 0C54.7 0 27.3 0 13.7 0L0 0Z"
        fill="#6198ff"></path>
    <path
        d="M0 367L13.7 363C27.3 359 54.7 351 82 351C109.3 351 136.7 359 163.8 356C191 353 218 339 245.2 325C272.3 311 299.7 297 327 293C354.3 289 381.7 295 409 306C436.3 317 463.7 333 491 340C518.3 347 545.7 345 573 350C600.3 355 627.7 367 654.8 378C682 389 709 399 736.2 385C763.3 371 790.7 333 818 308C845.3 283 872.7 271 886.3 265L900 259L900 71L886.3 80C872.7 89 845.3 107 818 119C790.7 131 763.3 137 736.2 137C709 137 682 131 654.8 130C627.7 129 600.3 133 573 138C545.7 143 518.3 149 491 159C463.7 169 436.3 183 409 184C381.7 185 354.3 173 327 179C299.7 185 272.3 209 245.2 226C218 243 191 253 163.8 248C136.7 243 109.3 223 82 196C54.7 169 27.3 135 13.7 118L0 101Z"
        fill="#3c80ff"></path>
    <path
        d="M0 421L13.7 422C27.3 423 54.7 425 82 423C109.3 421 136.7 415 163.8 404C191 393 218 377 245.2 366C272.3 355 299.7 349 327 346C354.3 343 381.7 343 409 358C436.3 373 463.7 403 491 414C518.3 425 545.7 417 573 414C600.3 411 627.7 413 654.8 419C682 425 709 435 736.2 425C763.3 415 790.7 385 818 368C845.3 351 872.7 347 886.3 345L900 343L900 257L886.3 263C872.7 269 845.3 281 818 306C790.7 331 763.3 369 736.2 383C709 397 682 387 654.8 376C627.7 365 600.3 353 573 348C545.7 343 518.3 345 491 338C463.7 331 436.3 315 409 304C381.7 293 354.3 287 327 291C299.7 295 272.3 309 245.2 323C218 337 191 351 163.8 354C136.7 357 109.3 349 82 349C54.7 349 27.3 357 13.7 361L0 365Z"
        fill="#0066ff"></path>
    <path
        d="M0 535L13.7 529C27.3 523 54.7 511 82 511C109.3 511 136.7 523 163.8 510C191 497 218 459 245.2 447C272.3 435 299.7 449 327 456C354.3 463 381.7 463 409 465C436.3 467 463.7 471 491 469C518.3 467 545.7 459 573 464C600.3 469 627.7 487 654.8 496C682 505 709 505 736.2 500C763.3 495 790.7 485 818 478C845.3 471 872.7 467 886.3 465L900 463L900 341L886.3 343C872.7 345 845.3 349 818 366C790.7 383 763.3 413 736.2 423C709 433 682 423 654.8 417C627.7 411 600.3 409 573 412C545.7 415 518.3 423 491 412C463.7 401 436.3 371 409 356C381.7 341 354.3 341 327 344C299.7 347 272.3 353 245.2 364C218 375 191 391 163.8 402C136.7 413 109.3 419 82 421C54.7 423 27.3 421 13.7 420L0 419Z"
        fill="#0059dd"></path>
    <path
        d="M0 601L13.7 601C27.3 601 54.7 601 82 601C109.3 601 136.7 601 163.8 601C191 601 218 601 245.2 601C272.3 601 299.7 601 327 601C354.3 601 381.7 601 409 601C436.3 601 463.7 601 491 601C518.3 601 545.7 601 573 601C600.3 601 627.7 601 654.8 601C682 601 709 601 736.2 601C763.3 601 790.7 601 818 601C845.3 601 872.7 601 886.3 601L900 601L900 461L886.3 463C872.7 465 845.3 469 818 476C790.7 483 763.3 493 736.2 498C709 503 682 503 654.8 494C627.7 485 600.3 467 573 462C545.7 457 518.3 465 491 467C463.7 469 436.3 465 409 463C381.7 461 354.3 461 327 454C299.7 447 272.3 433 245.2 445C218 457 191 495 163.8 508C136.7 521 109.3 509 82 509C54.7 509 27.3 521 13.7 527L0 533Z"
        fill="#004cbb"></path>
</svg>